PathFileType	4	(X/Y/Z)	markers
DataRate	CameraRate	NumFrames	NumMarkers	Units	OrigDataRate	OrigDataStartFrame	OrigNumFrames
200	200	7	39	mm	200	65	257
Frame#	Time	RASI			LASI			RPSI			LPSI			RTH1			RTH2			RTH3			RTH4			RLFC			RTB1			RTB2			RTB3			RTB4			RLMAL			RCAL			RTOE			RMT5			LTH1			LTH2			LTH3			LTH4			LLFC			LTB1			LTB2			LTB3			LTB4			LLMAL			LCAL			LTOE			LMT5			C7			T10			CLAV			RACR			LACR			RLEL			RFAradius			LLEL			LFAradius		
		X1	Y1	Z1	X2	Y2	Z2	X3	Y3	Z3	X4	Y4	Z4	X5	Y5	Z5	X6	Y6	Z6	X7	Y7	Z7	X8	Y8	Z8	X9	Y9	Z9	X10	Y10	Z10	X11	Y11	Z11	X12	Y12	Z12	X13	Y13	Z13	X14	Y14	Z14	X15	Y15	Z15	X16	Y16	Z16	X17	Y17	Z17	X18	Y18	Z18	X19	Y19	Z19	X20	Y20	Z20	X21	Y21	Z21	X22	Y22	Z22	X23	Y23	Z23	X24	Y24	Z24	X25	Y25	Z25	X26	Y26	Z26	X27	Y27	Z27	X28	Y28	Z28	X29	Y29	Z29	X30	Y30	Z30	X31	Y31	Z31	X32	Y32	Z32	X33	Y33	Z33	X34	Y34	Z34	X35	Y35	Z35	X36	Y36	Z36	X37	Y37	Z37	X38	Y38	Z38	X39	Y39	Z39
65	0.320000	670.403778	1024.911420	705.945103	676.765832	1001.285606	472.595110	509.415569	1056.040693	638.361640	513.070118	1054.666635	543.085602	742.889354	812.615532	751.645221	784.061124	842.057162	711.173497	839.397649	756.294104	701.047964	809.992455	730.911143	732.857119	860.208722	614.134370	717.252081	804.305183	497.796708	738.919467	848.699743	483.674405	717.274755	819.944109	383.264031	696.280744	765.195030	403.080114	725.820167	699.621952	207.969137	686.567737	640.832609	181.187146	623.914043	863.565027	139.277399	623.022111	814.495418	136.009307	716.438741	581.633233	736.938460	422.792564	618.394868	729.987997	456.745069	590.868585	635.443983	483.425385	539.394813	637.682266	443.513409	459.543831	529.214731	453.396040	390.348156	452.927530	429.767375	421.924993	425.086827	455.204624	356.427192	348.051109	471.496789	309.996301	382.376698	437.955803	171.184808	209.837451	480.681877	87.565041	235.886131	539.237669	239.991472	76.118149	561.530987	202.324387	88.002921	465.199222	587.786653	1550.377928	576.711353	504.798641	1355.436340	558.910496	682.797002	1466.594465	625.328299	589.670113	1524.396318	748.854522	673.049060	1517.783515	422.801432	339.521815	1316.232939	810.762445	481.540946	1098.995702	816.939037	655.789331	1176.214257	340.073836	837.224031	1277.430349	478.276158
66	0.325000	686.760051	1028.216504	706.957069	694.149494	1003.835178	474.001442	526.554280	1060.350313	638.429832	530.598986	1058.567307	542.832586	755.495428	812.979670	752.390272	798.707231	842.405662	714.652867	852.534022	755.549113	704.156493	821.639039	730.314961	734.160018	871.777693	613.632041	718.797117	819.706496	494.557014	739.351809	865.220851	482.982503	717.306956	840.054428	381.702594	697.537714	784.945767	399.357789	726.446798	729.115399	201.409996	687.054010	670.200413	172.100822	624.479006	894.681568	140.579116	622.088141	846.903354	134.563748	716.317797	596.666236	740.416531	423.551562	633.874005	733.724070	456.033378	604.815923	638.815254	484.226599	554.452094	641.553774	442.988344	472.133322	534.033593	452.765513	402.757562	458.777887	429.071720	434.157982	430.437482	454.537052	367.755192	354.316556	471.364932	321.278283	387.822633	437.424922	180.302774	218.103789	479.768763	98.567908	245.721653	539.905758	246.741147	81.689934	561.327209	207.010741	93.916052	465.029410	602.918821	1553.459481	577.482219	521.753338	1358.200651	558.178809	697.640372	1470.528253	626.854907	603.958477	1527.487939	749.264129	688.570183	1521.658874	424.974633	352.668278	1321.646889	808.600737	493.520544	1103.917930	818.018568	673.722311	1180.688203	340.594936	853.436353	1281.878168	480.931125
67	0.330000	703.043410	1031.153872	707.951472	711.276104	1005.960383	475.723918	544.068791	1064.080582	638.737142	548.020854	1062.181341	542.827088	768.263639	813.057085	754.417507	812.989900	841.385834	717.855223	865.617688	754.923337	707.438418	832.959570	729.303455	737.086391	882.741575	612.642085	720.162538	835.278942	491.294867	740.229608	881.603408	482.859499	720.683278	860.710061	379.299915	698.521992	804.653861	395.202710	727.253742	757.295745	194.652052	686.959782	699.170142	163.255170	625.032859	924.603998	142.089097	621.275532	877.863959	132.716389	715.557076	612.331650	742.745961	425.036998	648.473910	736.045204	458.277265	619.116295	642.116993	483.887365	568.445603	645.257394	443.476764	485.203603	539.256296	453.150081	415.595893	463.781304	429.508022	447.184169	435.028921	453.814405	379.701589	360.116183	470.380791	333.524908	394.338432	437.180575	189.619896	225.548195	478.932294	109.699758	255.996231	539.852024	252.657824	85.982072	560.779736	211.217294	100.687158	465.021225	618.462919	1556.203428	578.932603	538.125125	1360.680588	558.247114	713.170637	1473.717429	627.811904	618.486645	1530.425708	749.524200	705.213338	1525.475223	426.422752	365.614707	1326.379836	806.726766	506.247848	1107.964309	818.869185	691.457961	1184.763922	341.035965	869.804375	1286.002565	483.736599
68	0.335000	719.632709	1033.466563	708.801640	728.418075	1008.064929	476.839478	560.772079	1067.554912	638.792156	565.452229	1065.321662	542.786307	780.558733	813.011276	756.643137	827.675728	840.838359	720.800523	878.198547	752.736138	710.869270	844.041800	727.520055	737.215968	893.672076	611.059626	721.456955	851.237784	488.647573	741.928436	897.352252	481.691181	720.216635	880.123363	377.782904	698.309598	824.035607	390.302493	727.597142	785.660643	188.692941	687.300334	728.169465	154.711311	626.363003	954.483065	143.243195	620.186031	909.198534	132.239296	714.666881	626.704506	745.567384	426.699084	663.253900	738.114310	459.939599	633.912133	645.183062	485.541194	583.445985	647.759184	445.450801	499.041471	543.109783	453.797876	429.194180	468.835736	429.444584	459.973525	439.332689	454.937162	391.736415	363.665061	470.533827	346.568009	399.541092	436.615981	199.737111	233.502103	478.006444	121.614698	266.678281	540.196351	259.575642	90.533761	559.962607	217.523392	106.397125	464.684030	633.300284	1559.090176	579.637693	554.818498	1363.344865	557.821512	728.104738	1476.967265	629.105097	632.444234	1532.780070	749.978913	721.434021	1528.761631	428.144805	379.211060	1331.041047	805.070420	518.894097	1111.711979	819.734724	709.128977	1188.723542	341.142646	885.566586	1289.422049	486.899449
69	0.340000	735.746012	1035.962023	709.558685	745.338149	1010.856440	477.384460	577.704024	1070.660568	639.153790	582.960277	1068.660205	542.058883	792.613510	811.721108	757.317388	841.907869	839.633555	723.737451	890.432335	750.338870	713.997689	855.298969	725.622517	739.221103	905.069787	609.233206	722.634504	866.677046	485.608843	743.031780	913.054271	480.081830	721.943041	900.347006	376.134352	699.675492	843.355435	385.532609	728.214060	812.840891	183.194533	687.973476	756.326981	147.091108	626.486869	982.847800	145.505297	618.496950	939.468402	131.652773	714.071364	643.060102	749.083844	426.832137	679.716085	741.234872	460.899484	649.588898	647.692129	485.759777	599.799143	651.570836	444.280638	513.758746	546.739120	454.576661	444.269010	473.317284	429.544149	472.893137	443.142743	455.996578	404.907801	368.603963	470.675148	359.875647	404.220391	437.258686	210.425278	240.221100	477.148626	134.125667	276.358323	539.590227	265.355299	93.455940	559.414630	223.430122	113.196607	464.370805	648.010980	1561.456237	579.190811	571.228198	1365.669728	557.788097	743.583469	1479.778731	630.607419	647.481642	1535.206064	750.236150	737.204933	1531.579121	429.598563	392.491054	1335.255670	803.164801	531.845514	1115.102281	820.550361	726.398838	1192.086674	341.402041	901.606154	1292.665105	489.474972
70	0.345000	752.196874	1037.557807	710.239698	761.677347	1012.867195	478.598435	594.511851	1073.346321	639.621814	599.295425	1071.265139	543.318558	805.088192	810.979481	758.000545	855.903060	837.869555	726.787915	902.617366	747.785093	716.832199	866.149030	723.418274	740.891555	915.998502	606.560112	723.557994	881.951448	481.534606	743.880053	927.621194	479.424836	722.092188	919.449498	373.995323	700.240847	862.394679	381.035434	728.823106	839.753242	177.984624	689.039312	784.261243	140.044059	628.495515	1010.473777	147.715065	617.508275	968.930537	130.901078	713.190554	658.997447	750.207313	429.288017	695.525427	742.936703	463.241728	665.670297	649.908841	487.171948	615.079470	653.337632	447.234935	529.099078	550.006925	456.229783	458.538619	475.723559	431.114072	488.188774	446.176771	456.581011	418.634133	373.393179	471.016068	373.911398	409.707488	437.283945	222.138957	246.824124	475.832498	147.472965	287.191645	538.511868	270.509182	98.227737	559.027551	228.996919	118.684845	464.492975	663.464312	1563.282328	580.193423	587.613470	1367.604091	557.968739	759.053595	1482.301481	631.815893	661.579874	1537.234649	750.934448	753.679193	1534.402065	430.706995	406.542713	1338.079999	802.029768	545.307157	1118.083380	821.482926	744.702496	1195.363275	341.721228	917.277469	1295.313174	492.314335
71	0.350000	768.519291	1038.817517	711.123970	778.496501	1014.849310	479.554269	610.842784	1075.560942	639.995998	616.112198	1073.515824	543.689152	818.671567	809.032917	758.725480	869.510700	835.796557	729.673871	914.610959	744.431613	719.312242	877.079456	720.687670	742.645804	927.925365	603.838604	724.731200	897.026244	477.969020	744.214738	943.158021	476.946907	722.878103	938.013948	372.271577	700.197555	881.904779	378.672611	731.845999	866.366153	173.458872	690.093082	811.438061	133.403596	629.928925	1037.222822	150.042555	615.957449	997.298355	131.145732	712.065156	676.569430	753.282053	428.769203	712.288462	745.234727	463.521114	682.104072	652.099640	488.783378	632.163120	656.211624	447.148623	545.687066	552.136690	456.447838	474.617558	479.333178	431.331171	503.239869	448.282050	457.693025	432.563123	376.716010	470.833296	389.242621	414.316976	436.440815	232.352204	253.776639	475.749237	160.076007	296.553989	537.625915	276.124187	104.641980	560.421700	235.786428	126.307358	464.404490	679.198125	1565.183655	580.873188	604.128797	1369.518869	557.912073	774.425436	1484.208183	633.469562	676.446280	1539.273062	751.255934	769.589089	1537.012796	432.149047	420.921106	1340.986090	801.012568	558.944287	1120.704346	822.511136	762.387216	1197.982689	341.901382	933.094590	1297.861830	494.715740
